<svg width="127" height="127" viewBox="0 0 127 127" fill="none" xmlns="http://www.w3.org/2000/svg">
<g clip-path="url(#clip0_45_107)">
<g clip-path="url(#clip1_45_107)">
<g clip-path="url(#clip2_45_107)">
<path d="M3.29025 6.91643C4.95045 6.91643 6.29631 5.57057 6.29631 3.91036C6.29631 2.25016 4.95045 0.904297 3.29025 0.904297C1.63004 0.904297 0.28418 2.25016 0.28418 3.91036C0.28418 5.57057 1.63004 6.91643 3.29025 6.91643Z" fill="#7A3BB7"/>
<path d="M23.2878 6.91643C24.948 6.91643 26.2939 5.57057 26.2939 3.91036C26.2939 2.25016 24.948 0.904297 23.2878 0.904297C21.6276 0.904297 20.2817 2.25016 20.2817 3.91036C20.2817 5.57057 21.6276 6.91643 23.2878 6.91643Z" fill="#7A3BB7"/>
<path d="M43.2863 6.91643C44.9465 6.91643 46.2924 5.57057 46.2924 3.91036C46.2924 2.25016 44.9465 0.904297 43.2863 0.904297C41.6261 0.904297 40.2803 2.25016 40.2803 3.91036C40.2803 5.57057 41.6261 6.91643 43.2863 6.91643Z" fill="#7A3BB7"/>
<path d="M63.2839 6.91643C64.9441 6.91643 66.29 5.57057 66.29 3.91036C66.29 2.25016 64.9441 0.904297 63.2839 0.904297C61.6237 0.904297 60.2778 2.25016 60.2778 3.91036C60.2778 5.57057 61.6237 6.91643 63.2839 6.91643Z" fill="#7A3BB7"/>
<path d="M83.2824 6.91643C84.9426 6.91643 86.2885 5.57057 86.2885 3.91036C86.2885 2.25016 84.9426 0.904297 83.2824 0.904297C81.6222 0.904297 80.2764 2.25016 80.2764 3.91036C80.2764 5.57057 81.6222 6.91643 83.2824 6.91643Z" fill="#7A3BB7"/>
<path d="M103.281 6.91643C104.941 6.91643 106.287 5.57057 106.287 3.91036C106.287 2.25016 104.941 0.904297 103.281 0.904297C101.621 0.904297 100.275 2.25016 100.275 3.91036C100.275 5.57057 101.621 6.91643 103.281 6.91643Z" fill="#7A3BB7"/>
<path d="M123.278 6.91643C124.938 6.91643 126.284 5.57057 126.284 3.91036C126.284 2.25016 124.938 0.904297 123.278 0.904297C121.618 0.904297 120.272 2.25016 120.272 3.91036C120.272 5.57057 121.618 6.91643 123.278 6.91643Z" fill="#7A3BB7"/>
<path d="M3.29025 26.914C4.95045 26.914 6.29631 25.5681 6.29631 23.9079C6.29631 22.2477 4.95045 20.9019 3.29025 20.9019C1.63004 20.9019 0.28418 22.2477 0.28418 23.9079C0.28418 25.5681 1.63004 26.914 3.29025 26.914Z" fill="#7A3BB7"/>
<path d="M3.29025 46.9125C4.95045 46.9125 6.29631 45.5667 6.29631 43.9065C6.29631 42.2463 4.95045 40.9004 3.29025 40.9004C1.63004 40.9004 0.28418 42.2463 0.28418 43.9065C0.28418 45.5667 1.63004 46.9125 3.29025 46.9125Z" fill="#7A3BB7"/>
<path d="M3.29025 66.9098C4.95045 66.9098 6.29631 65.564 6.29631 63.9038C6.29631 62.2436 4.95045 60.8977 3.29025 60.8977C1.63004 60.8977 0.28418 62.2436 0.28418 63.9038C0.28418 65.564 1.63004 66.9098 3.29025 66.9098Z" fill="#7A3BB7"/>
<path d="M3.29025 86.9084C4.95045 86.9084 6.29631 85.5625 6.29631 83.9023C6.29631 82.2421 4.95045 80.8962 3.29025 80.8962C1.63004 80.8962 0.28418 82.2421 0.28418 83.9023C0.28418 85.5625 1.63004 86.9084 3.29025 86.9084Z" fill="#7A3BB7"/>
<path d="M3.29025 106.907C4.95045 106.907 6.29631 105.561 6.29631 103.901C6.29631 102.241 4.95045 100.895 3.29025 100.895C1.63004 100.895 0.28418 102.241 0.28418 103.901C0.28418 105.561 1.63004 106.907 3.29025 106.907Z" fill="#7A3BB7"/>
<path d="M3.29025 126.904C4.95045 126.904 6.29631 125.558 6.29631 123.898C6.29631 122.238 4.95045 120.892 3.29025 120.892C1.63004 120.892 0.28418 122.238 0.28418 123.898C0.28418 125.558 1.63004 126.904 3.29025 126.904Z" fill="#7A3BB7"/>
<path d="M23.2878 126.904C24.948 126.904 26.2939 125.558 26.2939 123.898C26.2939 122.238 24.948 120.892 23.2878 120.892C21.6276 120.892 20.2817 122.238 20.2817 123.898C20.2817 125.558 21.6276 126.904 23.2878 126.904Z" fill="#7A3BB7"/>
<path d="M43.2863 126.904C44.9465 126.904 46.2924 125.558 46.2924 123.898C46.2924 122.238 44.9465 120.892 43.2863 120.892C41.6261 120.892 40.2803 122.238 40.2803 123.898C40.2803 125.558 41.6261 126.904 43.2863 126.904Z" fill="#7A3BB7"/>
<path d="M63.2839 126.904C64.9441 126.904 66.29 125.558 66.29 123.898C66.29 122.238 64.9441 120.892 63.2839 120.892C61.6237 120.892 60.2778 122.238 60.2778 123.898C60.2778 125.558 61.6237 126.904 63.2839 126.904Z" fill="#7A3BB7"/>
<path d="M83.2824 126.904C84.9426 126.904 86.2885 125.558 86.2885 123.898C86.2885 122.238 84.9426 120.892 83.2824 120.892C81.6222 120.892 80.2764 122.238 80.2764 123.898C80.2764 125.558 81.6222 126.904 83.2824 126.904Z" fill="#7A3BB7"/>
<path d="M103.281 126.904C104.941 126.904 106.287 125.558 106.287 123.898C106.287 122.238 104.941 120.892 103.281 120.892C101.621 120.892 100.275 122.238 100.275 123.898C100.275 125.558 101.621 126.904 103.281 126.904Z" fill="#7A3BB7"/>
<path d="M123.278 126.904C124.938 126.904 126.284 125.558 126.284 123.898C126.284 122.238 124.938 120.892 123.278 120.892C121.618 120.892 120.272 122.238 120.272 123.898C120.272 125.558 121.618 126.904 123.278 126.904Z" fill="#7A3BB7"/>
<path d="M23.2878 106.907C24.948 106.907 26.2939 105.561 26.2939 103.901C26.2939 102.241 24.948 100.895 23.2878 100.895C21.6276 100.895 20.2817 102.241 20.2817 103.901C20.2817 105.561 21.6276 106.907 23.2878 106.907Z" fill="#7A3BB7"/>
<path d="M43.2863 106.907C44.9465 106.907 46.2924 105.561 46.2924 103.901C46.2924 102.241 44.9465 100.895 43.2863 100.895C41.6261 100.895 40.2803 102.241 40.2803 103.901C40.2803 105.561 41.6261 106.907 43.2863 106.907Z" fill="#7A3BB7"/>
<path d="M63.2839 106.907C64.9441 106.907 66.29 105.561 66.29 103.901C66.29 102.241 64.9441 100.895 63.2839 100.895C61.6237 100.895 60.2778 102.241 60.2778 103.901C60.2778 105.561 61.6237 106.907 63.2839 106.907Z" fill="#7A3BB7"/>
<path d="M83.2824 106.907C84.9426 106.907 86.2885 105.561 86.2885 103.901C86.2885 102.241 84.9426 100.895 83.2824 100.895C81.6222 100.895 80.2764 102.241 80.2764 103.901C80.2764 105.561 81.6222 106.907 83.2824 106.907Z" fill="#7A3BB7"/>
<path d="M103.281 106.907C104.941 106.907 106.287 105.561 106.287 103.901C106.287 102.241 104.941 100.895 103.281 100.895C101.621 100.895 100.275 102.241 100.275 103.901C100.275 105.561 101.621 106.907 103.281 106.907Z" fill="#7A3BB7"/>
<path d="M123.278 106.907C124.938 106.907 126.284 105.561 126.284 103.901C126.284 102.241 124.938 100.895 123.278 100.895C121.618 100.895 120.272 102.241 120.272 103.901C120.272 105.561 121.618 106.907 123.278 106.907Z" fill="#7A3BB7"/>
<path d="M23.2878 86.9084C24.948 86.9084 26.2939 85.5625 26.2939 83.9023C26.2939 82.2421 24.948 80.8962 23.2878 80.8962C21.6276 80.8962 20.2817 82.2421 20.2817 83.9023C20.2817 85.5625 21.6276 86.9084 23.2878 86.9084Z" fill="#7A3BB7"/>
<path d="M43.2863 86.9084C44.9465 86.9084 46.2924 85.5625 46.2924 83.9023C46.2924 82.2421 44.9465 80.8962 43.2863 80.8962C41.6261 80.8962 40.2803 82.2421 40.2803 83.9023C40.2803 85.5625 41.6261 86.9084 43.2863 86.9084Z" fill="#7A3BB7"/>
<path d="M63.2839 86.9084C64.9441 86.9084 66.29 85.5625 66.29 83.9023C66.29 82.2421 64.9441 80.8962 63.2839 80.8962C61.6237 80.8962 60.2778 82.2421 60.2778 83.9023C60.2778 85.5625 61.6237 86.9084 63.2839 86.9084Z" fill="#7A3BB7"/>
<path d="M83.2824 86.9084C84.9426 86.9084 86.2885 85.5625 86.2885 83.9023C86.2885 82.2421 84.9426 80.8962 83.2824 80.8962C81.6222 80.8962 80.2764 82.2421 80.2764 83.9023C80.2764 85.5625 81.6222 86.9084 83.2824 86.9084Z" fill="#7A3BB7"/>
<path d="M103.281 86.9084C104.941 86.9084 106.287 85.5625 106.287 83.9023C106.287 82.2421 104.941 80.8962 103.281 80.8962C101.621 80.8962 100.275 82.2421 100.275 83.9023C100.275 85.5625 101.621 86.9084 103.281 86.9084Z" fill="#7A3BB7"/>
<path d="M123.278 86.9084C124.938 86.9084 126.284 85.5625 126.284 83.9023C126.284 82.2421 124.938 80.8962 123.278 80.8962C121.618 80.8962 120.272 82.2421 120.272 83.9023C120.272 85.5625 121.618 86.9084 123.278 86.9084Z" fill="#7A3BB7"/>
<path d="M23.2878 66.9098C24.948 66.9098 26.2939 65.564 26.2939 63.9038C26.2939 62.2436 24.948 60.8977 23.2878 60.8977C21.6276 60.8977 20.2817 62.2436 20.2817 63.9038C20.2817 65.564 21.6276 66.9098 23.2878 66.9098Z" fill="#7A3BB7"/>
<path d="M43.2863 66.9098C44.9465 66.9098 46.2924 65.564 46.2924 63.9038C46.2924 62.2436 44.9465 60.8977 43.2863 60.8977C41.6261 60.8977 40.2803 62.2436 40.2803 63.9038C40.2803 65.564 41.6261 66.9098 43.2863 66.9098Z" fill="#7A3BB7"/>
<path d="M63.2839 66.9098C64.9441 66.9098 66.29 65.564 66.29 63.9038C66.29 62.2436 64.9441 60.8977 63.2839 60.8977C61.6237 60.8977 60.2778 62.2436 60.2778 63.9038C60.2778 65.564 61.6237 66.9098 63.2839 66.9098Z" fill="#7A3BB7"/>
<path d="M83.2824 66.9098C84.9426 66.9098 86.2885 65.564 86.2885 63.9038C86.2885 62.2436 84.9426 60.8977 83.2824 60.8977C81.6222 60.8977 80.2764 62.2436 80.2764 63.9038C80.2764 65.564 81.6222 66.9098 83.2824 66.9098Z" fill="#7A3BB7"/>
<path d="M103.281 66.9098C104.941 66.9098 106.287 65.564 106.287 63.9038C106.287 62.2436 104.941 60.8977 103.281 60.8977C101.621 60.8977 100.275 62.2436 100.275 63.9038C100.275 65.564 101.621 66.9098 103.281 66.9098Z" fill="#7A3BB7"/>
<path d="M123.278 66.9098C124.938 66.9098 126.284 65.564 126.284 63.9038C126.284 62.2436 124.938 60.8977 123.278 60.8977C121.618 60.8977 120.272 62.2436 120.272 63.9038C120.272 65.564 121.618 66.9098 123.278 66.9098Z" fill="#7A3BB7"/>
<path d="M23.2878 46.9125C24.948 46.9125 26.2939 45.5667 26.2939 43.9065C26.2939 42.2463 24.948 40.9004 23.2878 40.9004C21.6276 40.9004 20.2817 42.2463 20.2817 43.9065C20.2817 45.5667 21.6276 46.9125 23.2878 46.9125Z" fill="#7A3BB7"/>
<path d="M43.2863 46.9125C44.9465 46.9125 46.2924 45.5667 46.2924 43.9065C46.2924 42.2463 44.9465 40.9004 43.2863 40.9004C41.6261 40.9004 40.2803 42.2463 40.2803 43.9065C40.2803 45.5667 41.6261 46.9125 43.2863 46.9125Z" fill="#7A3BB7"/>
<path d="M63.2839 46.9125C64.9441 46.9125 66.29 45.5667 66.29 43.9065C66.29 42.2463 64.9441 40.9004 63.2839 40.9004C61.6237 40.9004 60.2778 42.2463 60.2778 43.9065C60.2778 45.5667 61.6237 46.9125 63.2839 46.9125Z" fill="#7A3BB7"/>
<path d="M83.2824 46.9125C84.9426 46.9125 86.2885 45.5667 86.2885 43.9065C86.2885 42.2463 84.9426 40.9004 83.2824 40.9004C81.6222 40.9004 80.2764 42.2463 80.2764 43.9065C80.2764 45.5667 81.6222 46.9125 83.2824 46.9125Z" fill="#7A3BB7"/>
<path d="M103.281 46.9125C104.941 46.9125 106.287 45.5667 106.287 43.9065C106.287 42.2463 104.941 40.9004 103.281 40.9004C101.621 40.9004 100.275 42.2463 100.275 43.9065C100.275 45.5667 101.621 46.9125 103.281 46.9125Z" fill="#7A3BB7"/>
<path d="M123.278 46.9125C124.938 46.9125 126.284 45.5667 126.284 43.9065C126.284 42.2463 124.938 40.9004 123.278 40.9004C121.618 40.9004 120.272 42.2463 120.272 43.9065C120.272 45.5667 121.618 46.9125 123.278 46.9125Z" fill="#7A3BB7"/>
<path d="M23.2878 26.914C24.948 26.914 26.2939 25.5681 26.2939 23.9079C26.2939 22.2477 24.948 20.9019 23.2878 20.9019C21.6276 20.9019 20.2817 22.2477 20.2817 23.9079C20.2817 25.5681 21.6276 26.914 23.2878 26.914Z" fill="#7A3BB7"/>
<path d="M43.2863 26.914C44.9465 26.914 46.2924 25.5681 46.2924 23.9079C46.2924 22.2477 44.9465 20.9019 43.2863 20.9019C41.6261 20.9019 40.2803 22.2477 40.2803 23.9079C40.2803 25.5681 41.6261 26.914 43.2863 26.914Z" fill="#7A3BB7"/>
<path d="M63.2839 26.914C64.9441 26.914 66.29 25.5681 66.29 23.9079C66.29 22.2477 64.9441 20.9019 63.2839 20.9019C61.6237 20.9019 60.2778 22.2477 60.2778 23.9079C60.2778 25.5681 61.6237 26.914 63.2839 26.914Z" fill="#7A3BB7"/>
<path d="M83.2824 26.914C84.9426 26.914 86.2885 25.5681 86.2885 23.9079C86.2885 22.2477 84.9426 20.9019 83.2824 20.9019C81.6222 20.9019 80.2764 22.2477 80.2764 23.9079C80.2764 25.5681 81.6222 26.914 83.2824 26.914Z" fill="#7A3BB7"/>
<path d="M103.281 26.914C104.941 26.914 106.287 25.5681 106.287 23.9079C106.287 22.2477 104.941 20.9019 103.281 20.9019C101.621 20.9019 100.275 22.2477 100.275 23.9079C100.275 25.5681 101.621 26.914 103.281 26.914Z" fill="#7A3BB7"/>
<path d="M123.278 26.914C124.938 26.914 126.284 25.5681 126.284 23.9079C126.284 22.2477 124.938 20.9019 123.278 20.9019C121.618 20.9019 120.272 22.2477 120.272 23.9079C120.272 25.5681 121.618 26.914 123.278 26.914Z" fill="#7A3BB7"/>
</g>
</g>
</g>
<defs>
<clipPath id="clip0_45_107">
<rect width="126" height="126" fill="white" transform="translate(0.28418 0.904297)"/>
</clipPath>
<clipPath id="clip1_45_107">
<rect width="126" height="126" fill="white" transform="translate(0.28418 0.904297)"/>
</clipPath>
<clipPath id="clip2_45_107">
<rect width="126" height="126" fill="white" transform="translate(0.28418 0.904297)"/>
</clipPath>
</defs>
</svg>
