<svg width="84" height="84" viewBox="0 0 84 84" fill="none" xmlns="http://www.w3.org/2000/svg">
<path d="M40.2307 70.5411C22.8233 70.5411 8.71191 56.5461 8.71191 39.2827C8.71191 22.0193 22.8233 8.02441 40.2307 8.02441" stroke="#A463CF" stroke-width="1.29171" stroke-linecap="round"/>
<path d="M42.0391 64.3411C55.3086 64.3411 66.0657 53.4691 66.0657 40.0577C66.0657 26.6464 55.3086 15.7744 42.0391 15.7744C28.7695 15.7744 18.0125 26.6464 18.0125 40.0577C18.0125 53.4691 28.7695 64.3411 42.0391 64.3411Z" fill="white"/>
<path d="M51.942 48.8505V45.4834C51.942 45.1505 52.2119 44.8805 52.5446 44.8805C52.8779 44.8805 53.1476 45.1505 53.1476 45.4834V50.3058C53.1476 50.6387 52.8779 50.9086 52.5446 50.9086H47.7224C47.3895 50.9086 47.1196 50.6387 47.1196 50.3058C47.1196 49.9729 47.3895 49.703 47.7224 49.703H51.0895L47.2961 45.9097C47.0608 45.6742 47.0608 45.2925 47.2961 45.057C47.5315 44.8217 47.9132 44.8217 48.1487 45.057L51.942 48.8505ZM32.6524 31.2659V34.633C32.6524 34.9659 32.3825 35.2358 32.0496 35.2358C31.7166 35.2358 31.4468 34.9659 31.4468 34.633V29.8106C31.4468 29.4776 31.7166 29.2078 32.0496 29.2078H36.872C37.2049 29.2078 37.4748 29.4776 37.4748 29.8106C37.4748 30.1435 37.2049 30.4133 36.872 30.4133H33.5049L37.2982 34.2067C37.5336 34.4422 37.5336 34.8238 37.2982 35.0592C37.0628 35.2946 36.6812 35.2946 36.4457 35.0592L32.6524 31.2659ZM33.5049 49.703H36.872C37.2049 49.703 37.4748 49.9729 37.4748 50.3058C37.4748 50.6387 37.2049 50.9086 36.872 50.9086H32.0496C31.7166 50.9086 31.4468 50.6387 31.4468 50.3058V45.4834C31.4468 45.1505 31.7166 44.8805 32.0496 44.8805C32.3825 44.8805 32.6524 45.1505 32.6524 45.4834V48.8505L36.4457 45.057C36.6812 44.8217 37.0628 44.8217 37.2982 45.057C37.5336 45.2925 37.5336 45.6742 37.2982 45.9097L33.5049 49.703ZM51.0895 30.4133H47.7224C47.3895 30.4133 47.1196 30.1435 47.1196 29.8106C47.1196 29.4776 47.3895 29.2078 47.7224 29.2078H52.5446C52.8779 29.2078 53.1476 29.4776 53.1476 29.8106V34.6705C53.1476 35.0034 52.8779 35.2733 52.5446 35.2733C52.2119 35.2733 51.942 35.0034 51.942 34.6705V31.2659L48.1487 35.0592C47.9132 35.2946 47.5315 35.2946 47.2961 35.0592C47.0608 34.8238 47.0608 34.4422 47.2961 34.2067L51.0895 30.4133ZM37.4748 38.2436C37.4748 36.5821 38.8195 35.2339 40.4811 35.2296L44.0979 35.2204C45.7701 35.2204 47.1196 36.5698 47.1196 38.2345V41.8666C47.1196 43.5311 45.7701 44.8805 44.1056 44.8805H40.4888C38.8242 44.8805 37.4748 43.5311 37.4748 41.8666V38.2436ZM38.6804 38.2436V41.8666C38.6804 42.8653 39.49 43.675 40.4888 43.675H44.1056C45.1043 43.675 45.914 42.8653 45.914 41.8666V38.2345C45.914 37.2357 45.1043 36.426 44.1056 36.426L40.4842 36.4352C39.4872 36.4377 38.6804 37.2467 38.6804 38.2436Z" fill="#A463CF"/>
</svg>
