<svg width="84" height="84" viewBox="0 0 84 84" fill="none" xmlns="http://www.w3.org/2000/svg">
<path d="M40.5508 70.5411C23.1434 70.5411 9.03198 56.5461 9.03198 39.2827C9.03198 22.0193 23.1434 8.02441 40.5508 8.02441" stroke="#A463CF" stroke-width="1.29171" stroke-linecap="round"/>
<path d="M42.3591 64.3411C55.6287 64.3411 66.3857 53.4691 66.3857 40.0577C66.3857 26.6464 55.6287 15.7744 42.3591 15.7744C29.0896 15.7744 18.3325 26.6464 18.3325 40.0577C18.3325 53.4691 29.0896 64.3411 42.3591 64.3411Z" fill="white"/>
<path d="M44.7873 33.5869C44.7873 35.6826 46.4876 37.3816 48.585 37.3816C50.6824 37.3816 52.3826 35.6826 52.3826 33.5869C52.3826 31.4789 50.6861 29.7837 48.5934 29.7837C46.4868 29.7879 44.7873 31.4894 44.7873 33.5869ZM45.5291 29.7775L36.6506 29.7837C34.5514 29.7879 32.8519 31.4894 32.8519 33.5869C32.8519 35.6826 34.5521 37.3816 36.6495 37.3816H45.5157C44.4095 36.4872 43.7023 35.1196 43.7023 33.5869C43.7023 32.0471 44.4151 30.6734 45.5291 29.7775ZM48.6868 28.7006C51.3406 28.7551 53.4676 30.9144 53.4676 33.57C53.4676 36.2814 51.2816 38.4658 48.585 38.4658H36.6495C33.9529 38.4658 31.7668 36.2814 31.7668 33.5869C31.7668 30.8914 33.9509 28.7048 36.6491 28.6996L48.5846 28.6911C48.6195 28.6911 48.6536 28.6944 48.6868 28.7006ZM36.5478 40.6268C36.5809 40.6205 36.615 40.6172 36.6499 40.6172L48.5854 40.6257C51.2836 40.631 53.4676 42.8175 53.4676 45.5131C53.4676 48.2076 51.2816 50.3919 48.585 50.3919H36.6495C33.9529 50.3919 31.7668 48.2076 31.7668 45.4961C31.7668 42.8405 33.894 40.6812 36.5478 40.6268ZM40.4472 45.5131C40.4472 43.4156 38.7476 41.714 36.6411 41.7099C34.5484 41.7099 32.8519 43.405 32.8519 45.5131C32.8519 47.6088 34.5521 49.3077 36.6495 49.3077C38.7469 49.3077 40.4472 47.6088 40.4472 45.5131ZM39.7055 41.7036C40.8194 42.5995 41.5322 43.9733 41.5322 45.5131C41.5322 47.0456 40.825 48.4133 39.7187 49.3077H48.585C50.6824 49.3077 52.3826 47.6088 52.3826 45.5131C52.3826 43.4156 50.6831 41.714 48.5839 41.7099L39.7055 41.7036Z" fill="#A463CF" stroke="#A463CF" stroke-width="0.258343"/>
</svg>
