<svg width="84" height="84" viewBox="0 0 84 84" fill="none" xmlns="http://www.w3.org/2000/svg">
<path d="M39.8808 70.5411C22.4735 70.5411 8.36206 56.5461 8.36206 39.2827C8.36206 22.0193 22.4735 8.02441 39.8808 8.02441" stroke="#A463CF" stroke-width="1.29171" stroke-linecap="round"/>
<path d="M41.6892 64.3411C54.9587 64.3411 65.7158 53.4691 65.7158 40.0577C65.7158 26.6464 54.9587 15.7744 41.6892 15.7744C28.4197 15.7744 17.6626 26.6464 17.6626 40.0577C17.6626 53.4691 28.4197 64.3411 41.6892 64.3411Z" fill="white"/>
<path d="M47.8688 36.444L48.7126 31.4148L52.0893 36.444H47.8688ZM47.5604 37.65H51.8961L43.6567 47.127L47.5604 37.65ZM35.8165 37.65L39.7202 47.127L31.4794 37.65H35.8165ZM35.5081 36.444H31.2875L34.6643 31.4148L35.5081 36.444ZM36.59 35.5575L35.7267 30.4138H40.4743L36.59 35.5575ZM42.9027 30.4138H47.6502L46.787 35.5575L42.9027 30.4138ZM37.4387 36.444L41.6885 30.8154L45.9382 36.444H37.4387ZM46.2479 37.65L41.6885 48.7214L37.1291 37.65H46.2479ZM53.7288 36.7129L48.8717 29.4767C48.8705 29.4743 48.8669 29.4731 48.8657 29.4707C48.8147 29.3971 48.7479 29.3368 48.6677 29.2922C48.6447 29.2789 48.6192 29.2753 48.5961 29.2644C48.5524 29.2475 48.5136 29.2234 48.4662 29.2162C48.4468 29.2126 48.4273 29.2198 48.4067 29.2174C48.3933 29.2174 48.3812 29.2078 48.3666 29.2078H35.0103C34.9957 29.2078 34.9836 29.2174 34.969 29.2174C34.9496 29.2198 34.9314 29.2126 34.9107 29.2162C34.8634 29.2234 34.8246 29.2475 34.782 29.2644C34.7577 29.2753 34.7323 29.2789 34.7104 29.2922C34.6303 29.3368 34.5623 29.3971 34.5125 29.4707C34.51 29.4731 34.5076 29.4743 34.5052 29.4767L29.6484 36.7129C29.4978 36.9385 29.516 37.2363 29.6945 37.4414L41.2295 50.7078C41.255 50.7379 41.2902 50.7512 41.3206 50.7753C41.3473 50.7958 41.3703 50.8187 41.4007 50.8344C41.5816 50.9333 41.7953 50.9333 41.9763 50.8344C42.0066 50.8187 42.0297 50.7958 42.0564 50.7753C42.0867 50.7512 42.122 50.7379 42.1487 50.7078L53.6838 37.4414C53.8621 37.2363 53.8802 36.9385 53.7288 36.7129Z" fill="#A463CF"/>
</svg>
