<?xml version="1.0" encoding="UTF-8"?>
<svg width="48" height="48" viewBox="0 0 48 48" fill="none" xmlns="http://www.w3.org/2000/svg">
    <rect width="48" height="48" rx="24" fill="#F5F0FF"/>
    <path d="M24 16C19.5817 16 16 19.5817 16 24C16 28.4183 19.5817 32 24 32C28.4183 32 32 28.4183 32 24C32 19.5817 28.4183 16 24 16ZM24 30C20.6863 30 18 27.3137 18 24C18 20.6863 20.6863 18 24 18C27.3137 18 30 20.6863 30 24C30 27.3137 27.3137 30 24 30Z" fill="#9747FF"/>
    <path d="M24 20C22.3431 20 21 21.3431 21 23V25C21 26.6569 22.3431 28 24 28C25.6569 28 27 26.6569 27 25V23C27 21.3431 25.6569 20 24 20Z" fill="#9747FF"/>
</svg> 