<?xml version="1.0" encoding="UTF-8"?> <svg xmlns="http://www.w3.org/2000/svg" width="25" height="22" viewBox="0 0 25 22" fill="none"><g clip-path="url(#clip0_58_44)"><path d="M22.3486 7.91016C22.8905 7.96435 23.2428 8.24885 23.4053 8.76365C23.5679 9.27845 23.4595 9.72552 23.0802 10.1048L18.7721 14.291L19.7882 20.2248C19.8695 20.7396 19.6933 21.1528 19.2598 21.4644C18.8263 21.776 18.3792 21.8098 17.9186 21.566L12.5945 18.8023L7.27032 21.566C6.80971 21.8369 6.36265 21.8098 5.92913 21.4847C5.49561 21.1596 5.31949 20.7396 5.40078 20.2248L6.41683 14.291L2.10874 10.1048C1.72942 9.72552 1.62104 9.27845 1.78361 8.76365C1.94617 8.24885 2.29841 7.96435 2.84031 7.91016L8.77409 7.01603L11.4158 1.65124C11.6597 1.16353 12.0526 0.919674 12.5945 0.919674C13.1364 0.919674 13.5292 1.16353 13.7731 1.65124L16.4149 7.01603L22.3486 7.91016ZM17.3903 13.8439L22.1861 9.17007L15.5614 8.2353L12.5945 2.22023L9.62758 8.2353L3.00288 9.17007L7.79868 13.8439L6.66069 20.428L12.5945 17.3392L18.5283 20.428L17.3903 13.8439Z" fill="#A15BCD"></path></g><defs><clipPath id="clip0_58_44"><rect width="23.41" height="21" fill="white" transform="matrix(1 0 0 -1 0.889648 21.8242)"></rect></clipPath></defs></svg> 