<?xml version="1.0" encoding="UTF-8"?> <svg xmlns="http://www.w3.org/2000/svg" width="1920" height="535" viewBox="0 0 1920 535" fill="none"><path d="M0.28418 534.198V134.198C105.279 160.864 210.275 187.531 336.284 182.198C462.294 176.864 609.318 139.531 738.951 123.531C868.584 107.531 980.826 112.864 1106.95 128.864C1233.08 144.864 1373.08 171.531 1510.95 174.198C1648.82 176.864 1784.55 155.531 1920.28 134.198V534.198H0.28418Z" fill="#E9ECF5" fill-opacity="0.4"></path><path d="M0.28418 534.198V267.531C144.208 245.203 288.131 222.874 418.951 232.865C549.771 242.855 667.487 285.164 769.618 286.198C871.748 287.231 958.294 246.989 1086.95 234.198C1215.61 221.407 1386.38 236.067 1532.28 246.198C1678.19 256.329 1799.24 261.93 1920.28 267.531V534.198H0.28418Z" fill="#E9ECF5" fill-opacity="0.53"></path><path d="M0.28418 534.198V400.865C118.944 429.534 237.605 458.204 365.618 439.531C493.63 420.858 630.996 354.842 764.284 359.531C897.573 364.22 1026.79 439.614 1146.95 444.865C1267.12 450.115 1378.24 385.222 1505.62 366.198C1633 347.174 1776.64 374.019 1920.28 400.865V534.198H0.28418Z" fill="#E9ECF5"></path></svg> 